<svg xmlns="http://www.w3.org/2000/svg" viewBox="-12 -14 234 144"><g fill="#7c4a24" transform="matrix(-1 0 0 1 100 0)"><rect width="12" height="56" x="26" y="12" rx="6"/><rect width="12" height="56" x="40" y="12" rx="6"/><rect width="12" height="56" x="54" y="12" rx="6"/><rect width="12" height="56" x="68" y="12" rx="6"/><rect width="12" height="36" x="5" y="38" rx="6" transform="rotate(-30 11 56)"/><rect width="60" height="48" x="22" y="58" rx="18"/></g><g fill="#a9673a" transform="translate(110)"><rect width="12" height="56" x="26" y="12" rx="6"/><rect width="12" height="56" x="40" y="12" rx="6"/><rect width="12" height="56" x="54" y="12" rx="6"/><rect width="12" height="56" x="68" y="12" rx="6"/><rect width="12" height="36" x="5" y="38" rx="6" transform="rotate(-30 11 56)"/><rect width="60" height="48" x="22" y="58" rx="18"/></g></svg>